<svg xmlns="http://www.w3.org/2000/svg" xmlns:xlink="http://www.w3.org/1999/xlink" xml:space="preserve" version="1.1" style="shape-rendering:geometricPrecision;text-rendering:geometricPrecision;image-rendering:optimizeQuality;" viewBox="0 0 668 922.5" x="0px" y="0px" fill-rule="evenodd" clip-rule="evenodd"><defs><style type="text/css">
   
    .fil0 {fill:black}
    .fil1 {fill:black;fill-rule:nonzero}
   
  </style></defs><g><path class="fil0" d="M26 369l64 0 27 27 0 270 -27 26 -64 0 -26 -26 0 -270 26 -27zm45 238l13 13 0 32 -13 13 -25 0 -13 -13 0 -32 13 -13 25 0z"/><path class="fil1" d="M295 213l21 -94 52 -1 59 95 -50 134 211 4 46 116 -164 261 -164 10 -75 -68 -83 0 0 -277c51,-58 98,-121 147,-180zm-127 187l0 250 71 0 74 68 145 -9 154 -244 -38 -94 -225 -5 56 -151 -48 -77 -25 0 -19 84c-48,59 -95,121 -145,178z"/><polygon class="fil0" points="64,623 53,623 50,627 50,645 53,648 64,648 67,645 67,627 "/><polygon class="fil0" points="532,163 547,212 596,212 556,242 571,291 532,261 493,291 508,242 468,212 517,212 "/><polygon class="fil0" points="636,77 632,117 668,132 630,142 626,182 607,148 569,158 595,127 575,93 610,108 "/><polygon class="fil0" points="504,0 515,36 551,36 522,58 533,94 504,71 475,94 486,58 457,36 493,36 "/></g><text x="0" y="753" fill="#000000" font-size="5px" font-weight="bold" font-family="'Helvetica Neue', Helvetica, Arial-Unicode, Arial, Sans-serif">Created by Kangrif</text><text x="0" y="758" fill="#000000" font-size="5px" font-weight="bold" font-family="'Helvetica Neue', Helvetica, Arial-Unicode, Arial, Sans-serif">from the Noun Project</text></svg>